<svg xmlns="http://www.w3.org/2000/svg" version="1.1" viewBox="159.744 141.312 727.04 718.848" style="max-height: 500px" width="727.04" height="718.848">
<path transform="translate(645,198)" fill="#0088FE" d="M0 0 C0 3 0 3 -1.34474468 4.71668148 C-1.97981851 5.35028874 -2.61489233 5.98389601 -3.26921082 6.63670349 C-4.35641922 7.73226562 -4.35641922 7.73226562 -5.46559143 8.84996033 C-6.27125046 9.64640457 -7.07690948 10.44284882 -7.90698242 11.26342773 C-8.7475116 12.10600128 -9.58804077 12.94857483 -10.45404053 13.81668091 C-12.76496529 16.1301035 -15.08246665 18.43668381 -17.40317321 20.74028659 C-19.83092102 23.15300887 -22.25057272 25.57382425 -24.67121887 27.9936676 C-28.74106394 32.05981686 -32.81650794 36.120283 -36.89575195 40.17700195 C-42.12402201 45.37645996 -47.34305492 50.58508706 -52.55916882 55.79673672 C-57.04861014 60.28218831 -61.54230181 64.7633749 -66.03666902 69.24389005 C-67.47795924 70.68109136 -68.91867021 72.11887142 -70.35930443 73.55673027 C-73.05228974 76.24283452 -75.74862547 78.92552724 -78.44604492 81.60717773 C-79.24158279 82.40159775 -80.03712067 83.19601776 -80.85676575 84.01451111 C-84.43442093 87.56451871 -87.99261753 90.92924293 -92 94 C-102.82291534 104.38799138 -110.59105856 114.54543493 -111.09538841 129.90511322 C-111.13734386 133.55001076 -111.14653043 137.19372493 -111.14526367 140.83886719 C-111.14825935 142.24075408 -111.15166282 143.64264015 -111.15544128 145.04452515 C-111.16424483 148.8381211 -111.16661789 152.63169446 -111.16725707 156.42529964 C-111.16796975 158.80021077 -111.17010822 161.17511623 -111.17275429 163.55002594 C-111.18199632 171.84910952 -111.18609069 180.14817707 -111.18530273 188.44726562 C-111.18470255 196.16059965 -111.19524558 203.8738636 -111.2110464 211.5871799 C-111.22416079 218.22778104 -111.22948498 224.86835939 -111.22884732 231.50897336 C-111.22859344 235.46691178 -111.23138356 239.4247879 -111.24202538 243.38271332 C-111.25177199 247.10920149 -111.25174102 250.83556865 -111.24450874 254.56206131 C-111.24297992 256.56494998 -111.25126394 258.56783881 -111.25994873 260.57070923 C-111.21472861 273.68714974 -110.02298317 286.20792712 -100.375 295.9375 C-99.25748608 296.966523 -98.13288301 297.98792205 -97 299 C-95.2890625 300.56640625 -95.2890625 300.56640625 -94 302 C-94 302.66 -94 303.32 -94 304 C-93.01 304.33 -92.02 304.66 -91 305 C-89.30911778 306.97956942 -87.64169528 308.97945196 -86 311 C-85.34 311.33 -84.68 311.66 -84 312 C-84 312.66 -84 313.32 -84 314 C-83.34 314 -82.68 314 -82 314 C-80.63639832 315.37619019 -80.63639832 315.37619019 -79.02026367 317.33544922 C-71.66712063 325.9744596 -63.46590732 333.87817558 -55.4777832 341.92724609 C-53.36821001 344.05463429 -51.2674935 346.19021401 -49.17407227 348.33349609 C-46.61837539 350.94993099 -44.04775107 353.55082264 -41.46632957 356.14187241 C-40.49689225 357.11976531 -39.53251616 358.10270741 -38.5738163 359.0911293 C-28.5705416 369.38777766 -17.60984144 375.82803495 -3.06126404 376.25396729 C-1.25759559 376.26569342 0.54616448 376.26674176 2.34985352 376.25878906 C3.34293518 376.2622937 4.33601685 376.26579834 5.35919189 376.26940918 C8.61583613 376.27815459 11.87226011 376.27240325 15.12890625 376.265625 C17.40616395 376.26697361 19.68342138 376.26891577 21.9606781 376.27142334 C26.72242995 376.27436478 31.48410654 376.2701081 36.24584961 376.26074219 C42.33751439 376.24934182 48.42900302 376.25591715 54.52066135 376.26788712 C59.21934833 376.27512663 63.9179938 376.27280827 68.61668205 376.26763153 C70.8624772 376.26630116 73.10827616 376.2679212 75.35406685 376.27259064 C78.49599266 376.27769095 81.63763614 376.26989661 84.77954102 376.25878906 C86.1598777 376.26486176 86.1598777 376.26486176 87.56809998 376.27105713 C105.43225403 376.15453866 117.021381 367.70410813 129.11535645 355.46859741 C131.67220886 352.84453909 134.21208856 350.20487111 136.75 347.5625 C139.34086185 344.89403723 141.93674674 342.23067348 144.53765869 339.57200623 C146.14491343 337.92607065 147.74553221 336.27362377 149.33880615 334.614151 C150.05425598 333.87595627 150.76970581 333.13776154 151.50683594 332.37719727 C152.13523376 331.72324478 152.76363159 331.0692923 153.41107178 330.39552307 C155 329 155 329 157 329 C157.268125 328.360625 157.53625 327.72125 157.8125 327.0625 C159 325 159 325 162 324 C162.33 323.01 162.66 322.02 163 321 C163.66 321 164.32 321 165 321 C165 320.34 165 319.68 165 319 C165.66 319 166.32 319 167 319 C167.33 318.01 167.66 317.02 168 316 C168.66 316 169.32 316 170 316 C170.20625 315.46890625 170.4125 314.9378125 170.625 314.390625 C172.57961192 310.99226564 175.22123717 308.48944072 178 305.75 C178.5465625 305.19570313 179.093125 304.64140625 179.65625 304.0703125 C183.7466133 300 183.7466133 300 186 300 C186.2475 299.4225 186.495 298.845 186.75 298.25 C188.18299988 295.67060021 189.78424676 293.93878408 192 292 C192.66 292 193.32 292 194 292 C194.2475 291.4225 194.495 290.845 194.75 290.25 C196.18299988 287.67060021 197.78424676 285.93878408 200 284 C200.66 284 201.32 284 202 284 C202 283.34 202 282.68 202 282 C202.66 282 203.32 282 204 282 C204.8095172 287.7083941 205.17113239 293.25760073 205.203125 299.01953125 C205.21013931 299.86743729 205.21715363 300.71534332 205.22438049 301.58894348 C205.24186371 304.33018323 205.24823859 307.07120644 205.25 309.8125 C205.25101212 311.22085114 205.25101212 311.22085114 205.25204468 312.65765381 C205.19909747 359.11758881 194.94731583 404.85612469 173 446 C172.60522461 446.74556152 172.21044922 447.49112305 171.80371094 448.25927734 C167.76473005 455.8461824 163.61503524 463.38738784 158.875 470.5625 C158.03582031 471.83287109 158.03582031 471.83287109 157.1796875 473.12890625 C151.33006854 478.15035335 139.63976688 476.14066874 132.3449707 476.12939453 C130.86736508 476.13075142 129.3897598 476.13253297 127.91215515 476.13470459 C123.9160072 476.13924664 119.91988519 476.13750214 115.92373681 476.1343255 C111.72578378 476.13178282 107.52783288 476.13414497 103.32987976 476.13571167 C96.2763123 476.1375288 89.22275532 476.13514006 82.16918945 476.13037109 C74.04293197 476.12493991 65.91669963 476.12668464 57.79044276 476.1321975 C50.79055865 476.13675426 43.79068205 476.13736637 36.79079694 476.13475883 C32.62044342 476.13320875 28.45010166 476.13296698 24.27974892 476.13629532 C20.35217823 476.13921103 16.4246395 476.13713124 12.49707222 476.13140106 C11.06573794 476.13009267 9.63440092 476.13043435 8.20306778 476.13266373 C-20.93008355 476.17381124 -20.93008355 476.17381124 -33.3125 463.9375 C-34.88051283 462.29691798 -36.44308366 460.65111632 -38 459 C-41.23284941 455.70605738 -44.54837644 452.56331591 -48 449.5 C-55.38970588 442.87132353 -55.38970588 442.87132353 -58 440 C-58 439.34 -58 438.68 -58 438 C-58.5877162 437.73746209 -59.1754324 437.47492418 -59.78095818 437.20443058 C-62.11358189 435.9383511 -63.63732407 434.60650951 -65.50466919 432.72911072 C-66.18040985 432.05467422 -66.85615051 431.38023773 -67.55236816 430.68536377 C-68.28290405 429.94606628 -69.01343994 429.2067688 -69.76611328 428.44506836 C-70.54377045 427.66609695 -71.32142761 426.88712555 -72.12265015 426.08454895 C-74.69316213 423.50754338 -77.2566308 420.92364282 -79.8203125 418.33984375 C-81.60291575 416.55097138 -83.38603427 414.76261234 -85.16964722 412.9747467 C-89.38515519 408.74728899 -93.59653543 404.51576591 -97.80560005 400.28189617 C-105.79478729 392.24571286 -113.79109974 384.21664161 -121.79143906 376.19156075 C-124.42292314 373.54982038 -127.05098649 370.9047112 -129.67874146 368.25926208 C-131.28327189 366.64790656 -132.88791071 365.03665895 -134.49267578 363.42553711 C-135.22726013 362.68421539 -135.96184448 361.94289368 -136.71868896 361.17910767 C-137.38878998 360.507491 -138.05889099 359.83587433 -138.7492981 359.14390564 C-139.33220675 358.55747756 -139.91511539 357.97104948 -140.51568794 357.36685085 C-141.97335323 355.89794449 -141.97335323 355.89794449 -144 355 C-144 354.34 -144 353.68 -144 353 C-144.66 353 -145.32 353 -146 353 C-147.7272543 351.37221192 -149.36241217 349.71474377 -151 348 C-152.135074 346.85952702 -153.27304084 345.7219285 -154.41333008 344.58666992 C-163.60888672 335.39111328 -172.80444336 326.19555664 -182 317 C-184.91232143 319.8903192 -187.70333528 322.77154082 -190.3125 325.9375 C-193.78182127 329.96466368 -197.66021224 332.97117636 -202 336 C-197.80621584 341.06889936 -193.29980699 345.77387092 -188.62890625 350.3984375 C-188.05828461 350.96355042 -187.48766296 351.52866333 -186.89974976 352.11090088 C-184.51164479 354.47125889 -182.11984219 356.82779669 -179.72387695 359.18017578 C-177.95874547 360.91529364 -176.19973315 362.65642841 -174.44140625 364.3984375 C-173.62126793 365.19838638 -173.62126793 365.19838638 -172.78456116 366.01449585 C-171.48471482 367.30552223 -170.23678457 368.64844033 -169 370 C-169 370.66 -169 371.32 -169 372 C-168.44115553 372.23283345 -167.88231106 372.4656669 -167.30653191 372.70555592 C-164.40516134 374.3338282 -162.43479763 376.34190148 -160.0954895 378.71110535 C-159.61600699 379.19381797 -159.13652448 379.67653059 -158.6425122 380.17387086 C-157.03829468 381.79117564 -155.44136815 383.41549286 -153.84423828 385.03979492 C-152.69444869 386.20161043 -151.54416247 387.36293462 -150.39341736 388.52380371 C-147.91523907 391.02525386 -145.43995891 393.52952519 -142.96667862 396.0358181 C-139.04677916 400.00668897 -135.11652915 403.96720354 -131.18405151 407.9256134 C-120.0021338 419.18360369 -108.82654021 430.44774489 -97.67871094 441.73950195 C-91.52212566 447.97540276 -85.35289792 454.19850218 -79.16947925 460.40779954 C-75.90203492 463.6900165 -72.64135248 466.97836114 -69.39627457 470.28270531 C-66.336679 473.39811698 -63.26071484 476.49641969 -60.17210579 479.58306122 C-59.0494194 480.71081381 -57.93263047 481.84447779 -56.82271767 482.98480415 C-43.02265271 497.14625673 -27.86092174 502.79428143 -8.30541992 503.36076355 C-5.6125258 503.36930001 -2.92295721 503.36241184 -0.23046875 503.34057617 C1.269409 503.33972694 2.769288 503.3402108 4.26916504 503.34190369 C8.28473182 503.34275352 12.3000218 503.32529489 16.31552505 503.30418181 C20.53284497 503.28524327 24.75017341 503.2836512 28.9675293 503.28010559 C36.92856614 503.27083501 44.88947726 503.24628987 52.8504591 503.21605712 C61.92440026 503.18235645 70.99834789 503.16598798 80.0723362 503.15097082 C98.71496169 503.11973499 117.35747069 503.06707313 136 503 C136 506.99833488 134.64185788 507.81158018 131.9375 510.6875 C131.11121094 511.57824219 130.28492188 512.46898437 129.43359375 513.38671875 C128.63050781 514.24910156 127.82742188 515.11148438 127 516 C125.82682267 517.32760832 124.65950336 518.66043259 123.5 520 C113.61188309 531.31690444 103.52423677 542.31541204 92 552 C91.14277344 552.73476563 90.28554688 553.46953125 89.40234375 554.2265625 C24.75075497 609.04554087 -58.66674918 638.68516398 -143.58178711 632.05224609 C-206.73262451 626.44909719 -269.25913869 602.0389481 -318.95703125 562.59765625 C-321.76569769 560.40120391 -324.66143216 558.32861065 -327.56640625 556.26171875 C-328.03949219 555.84535156 -328.51257813 555.42898438 -329 555 C-329 554.34 -329 553.68 -329 553 C-329.59224365 552.72921631 -330.1844873 552.45843262 -330.79467773 552.17944336 C-332.97343429 551.01420779 -334.49312169 549.81617488 -336.28515625 548.12890625 C-336.89294922 547.55994629 -337.50074219 546.99098633 -338.12695312 546.40478516 C-338.76568359 545.79683105 -339.40441406 545.18887695 -340.0625 544.5625 C-341.05733398 543.62349854 -341.05733398 543.62349854 -342.07226562 542.66552734 C-350.40698433 534.76683418 -358.58496945 526.78014078 -366 518 C-366.84304688 517.02289062 -367.68609375 516.04578125 -368.5546875 515.0390625 C-385.37124284 495.49214393 -400.27656582 473.9903962 -412 451 C-412.51159668 450.00129883 -413.02319336 449.00259766 -413.55029297 447.97363281 C-421.31314514 432.68475353 -427.96650075 417.39427085 -433 401 C-433.30631348 400.0188623 -433.61262695 399.03772461 -433.92822266 398.02685547 C-442.66114984 369.72122673 -447.08335478 340.56630159 -448 311 C-448.02336426 310.28859863 -448.04672852 309.57719727 -448.07080078 308.84423828 C-450.37264928 227.27369115 -419.42795946 146.33479002 -364.1953125 86.40625 C-362.36857095 84.40398524 -360.59870026 82.37108298 -358.83203125 80.31640625 C-354.61329278 75.48388976 -350.10775213 70.96109089 -345.5625 66.4375 C-344.75490234 65.62603516 -343.94730469 64.81457031 -343.11523438 63.97851562 C-338.24047701 59.11161444 -333.26012774 54.44735207 -328 50 C-327.38987061 49.4831665 -326.77974121 48.96633301 -326.15112305 48.43383789 C-311.6449421 36.26331616 -296.4421301 25.39433693 -280 16 C-279.30825684 15.60071289 -278.61651367 15.20142578 -277.90380859 14.79003906 C-252.30475165 0.05519658 -225.78664497 -10.39615138 -197.34667969 -18.32763672 C-194.53370667 -19.1336009 -191.76393357 -20.03994208 -189 -21 C-184.4889215 -22.50369283 -179.85789264 -23.00404649 -175.15966797 -23.68212891 C-172.81368144 -24.02742333 -170.47166074 -24.39516533 -168.12890625 -24.76171875 C-110.00623914 -33.58189002 -53.76178712 -22.29394058 0 0 Z M-264.06072998 127.94047546 C-264.96720276 128.84916885 -265.87367554 129.75786224 -266.80761719 130.6940918 C-267.30691742 131.193246 -267.80621765 131.69240021 -268.32064819 132.2066803 C-269.98176974 133.86850211 -271.63931264 135.53384745 -273.296875 137.19921875 C-274.44910236 138.35331127 -275.60155078 139.50718313 -276.75421143 140.6608429 C-279.7991648 143.70962509 -282.84110765 146.76139419 -285.88244629 149.81378174 C-288.96152018 152.90301925 -292.04336248 155.98949205 -295.125 159.07617188 C-300.56267382 164.52343028 -305.99788277 169.97313758 -311.43133545 175.42460632 C-312.27899475 176.27448624 -313.12665405 177.12436615 -314 178 C-314.88326965 178.89519852 -315.76653931 179.79039703 -316.67657471 180.71272278 C-319 183 -319 183 -321.5 184.9375 C-324.42320625 187.34914516 -326.60595036 190.0672892 -329 193 C-333.06669445 197.29907699 -337.52448475 201.13440646 -341.98828125 205.01171875 C-342.65214844 205.66785156 -343.31601562 206.32398438 -344 207 C-344 207.66 -344 208.32 -344 209 C-344.556875 209.20625 -345.11375 209.4125 -345.6875 209.625 C-348.28575577 211.16990883 -349.84478211 213.06062638 -351.703125 215.41796875 C-353 217 -353 217 -355.6875 219.625 C-357.7395395 221.73250003 -358.90351048 223.30861664 -360 226 C-360.66 226 -361.32 226 -362 226 C-362.81426925 227.55084105 -363.59973234 229.11679875 -364.375 230.6875 C-364.81585938 231.55761719 -365.25671875 232.42773438 -365.7109375 233.32421875 C-369.98165474 245.50223367 -369.2953586 258.58311805 -369.265625 271.3046875 C-369.26697573 273.35767665 -369.26891964 275.41066549 -369.27142334 277.46365356 C-369.27435674 281.74842398 -369.27013564 286.0331105 -369.26074219 290.31787109 C-369.24936333 295.76976666 -369.25590872 301.22146489 -369.26788712 306.6733532 C-369.27516654 310.908228 -369.27278983 315.14305721 -369.26763153 319.3779335 C-369.26631104 321.38628285 -369.26788562 323.39463653 -369.27259064 325.4029808 C-369.30994059 345.82499659 -369.2478704 363.31819392 -353.99302673 378.77571106 C-353.09201736 379.65829086 -352.191008 380.54087067 -351.26269531 381.45019531 C-350.28842457 382.4260524 -349.31546528 383.40322027 -348.34370422 384.38157654 C-345.73140827 387.00402968 -343.10107442 389.60764179 -340.46651936 392.20770741 C-337.70389304 394.94002168 -334.95771681 397.68878084 -332.20941162 400.43548584 C-327.6028837 405.03466206 -322.9852902 409.62247138 -318.35986328 414.20263672 C-312.41789823 420.08657615 -306.49484015 425.9891823 -300.57738113 431.89775467 C-295.48385531 436.98333596 -290.3818373 442.06037265 -285.27841854 447.13602352 C-283.63893273 448.7673088 -282.0006235 450.39976881 -280.3624649 452.03238678 C-277.79660468 454.58848562 -275.22551636 457.13920945 -272.65019798 459.68577766 C-271.25180983 461.07076329 -269.85827436 462.46064312 -268.46485901 463.85063171 C-267.22423958 465.07412071 -267.22423958 465.07412071 -265.95855713 466.32232666 C-265.23813358 467.03680088 -264.51771004 467.7512751 -263.77545547 468.48740005 C-262.13500189 470.21616997 -262.13500189 470.21616997 -260 470 C-258.71181224 468.33572064 -257.49433774 466.61641121 -256.3125 464.875 C-252.94525975 460.11441896 -249.54631199 456.57950134 -245 453 C-243.64946454 451.68409365 -242.30693833 450.35921586 -241 449 C-245.88888086 443.2739886 -250.99175153 437.82567965 -256.3125 432.5 C-257.02728516 431.77296875 -257.74207031 431.0459375 -258.47851562 430.296875 C-259.50428711 429.26820313 -259.50428711 429.26820313 -260.55078125 428.21875 C-261.47370972 427.2896582 -261.47370972 427.2896582 -262.4152832 426.34179688 C-263.90831314 424.78460336 -263.90831314 424.78460336 -266 425 C-266.25136719 424.41089844 -266.50273437 423.82179688 -266.76171875 423.21484375 C-268.15455401 420.72355798 -269.6208572 419.37699586 -271.8125 417.5625 C-276.00186975 414.00834155 -279.85968814 410.41768501 -283.3125 406.125 C-285.88640335 402.97015294 -288.85833494 400.42982443 -291.94921875 397.79296875 C-295.124542 395.016829 -298.04932143 392.01035522 -301 389 C-304.04225923 385.94289726 -307.10739041 382.91163765 -310.19857788 379.90402222 C-312.36465059 377.79241056 -314.51930573 375.66928611 -316.67382812 373.54589844 C-317.80075597 372.43902499 -318.93125585 371.33577567 -320.06542969 370.23632812 C-333.82370693 356.88671258 -341.80431168 343.91138046 -342.50170898 324.31542969 C-342.52098913 321.68177987 -342.52011379 319.05480421 -342.49609375 316.421875 C-342.49624946 314.99375332 -342.49775034 313.56563124 -342.50050354 312.13751221 C-342.50187189 309.17611509 -342.48959127 306.21521154 -342.46655273 303.25390625 C-342.43806727 299.49321301 -342.44095479 295.73333041 -342.45364285 291.97257614 C-342.46065387 289.03482346 -342.45275126 286.09725245 -342.44038582 283.15952301 C-342.43593112 281.77390493 -342.43548091 280.38826695 -342.43945122 279.0026474 C-342.46652031 261.2671444 -338.08370358 245.73729595 -325.69921875 232.57421875 C-324 231 -324 231 -322 230 C-322 229.34 -322 228.68 -322 228 C-321.01 227.67 -320.02 227.34 -319 227 C-317.29115995 225.37660195 -315.62553283 223.70680947 -314 222 C-313.401875 221.443125 -312.80375 220.88625 -312.1875 220.3125 C-310.77636223 219.04781729 -310.77636223 219.04781729 -311 217 C-310.4225 216.7525 -309.845 216.505 -309.25 216.25 C-306.67060021 214.81700012 -304.93878408 213.21575324 -303 211 C-303 210.34 -303 209.68 -303 209 C-302.45539124 208.78070831 -301.91078247 208.56141663 -301.34967041 208.33547974 C-298.22947731 206.56205882 -295.90417021 204.16650442 -293.40527344 201.63232422 C-292.85848938 201.08583221 -292.31170532 200.53934021 -291.74835205 199.97628784 C-289.94724351 198.17378907 -288.15331753 196.36431604 -286.359375 194.5546875 C-285.10999505 193.30157633 -283.86017199 192.04890681 -282.60992432 190.79666138 C-279.32413128 187.50324045 -276.0443893 184.20385709 -272.76586914 180.90319824 C-269.41785747 177.53471006 -266.06416093 174.1718924 -262.7109375 170.80859375 C-256.13504704 164.21126824 -249.56553484 157.60763017 -243 151 C-243.94872747 149.88890325 -244.89806544 148.77832775 -245.84765625 147.66796875 C-246.37625244 147.04946045 -246.90484863 146.43095215 -247.44946289 145.79370117 C-248.75713262 144.28095522 -250.0941388 142.79364183 -251.4375 141.3125 C-254.7259073 137.40283008 -257.06128019 132.85571236 -259.546875 128.4140625 C-260.02640625 127.61742187 -260.5059375 126.82078125 -261 126 C-262.3504212 125.88574243 -262.3504212 125.88574243 -264.06072998 127.94047546 Z"/>
<path transform="translate(428.75,641.6875)" fill="#FBFDFE" d="M0 0 C1.17961304 0.00845947 1.17961304 0.00845947 2.38305664 0.01708984 C16.07928875 0.30012195 28.28420131 4.85661351 38.40625 14.2734375 C49.98399671 27.07764043 53.07139085 41.30734685 52.42919922 57.94042969 C51.56073013 69.43640465 45.67126685 79.74012424 38.25 88.3125 C23.27627097 100.79835791 9.4495395 103.99994576 -9.75 102.3125 C-22.58446094 100.15828597 -33.36175465 92.2000737 -41.03125 81.953125 C-49.48913293 68.95874123 -52.09445759 53.78100648 -48.9921875 38.60546875 C-48.05340679 35.43061589 -46.9798976 32.38508628 -45.75 29.3125 C-45.49605469 28.6009375 -45.24210937 27.889375 -44.98046875 27.15625 C-40.34799044 16.02004598 -30.77277616 8.56180852 -20.20703125 3.6171875 C-13.41496963 1.05385577 -7.25734553 -0.05497394 0 0 Z"/>
<path transform="translate(462,264)" fill="#FBFDFE" d="M0 0 C10.05978518 7.83980172 17.03034737 16.83493548 21 29 C21.19335938 29.59039062 21.38671875 30.18078125 21.5859375 30.7890625 C24.33872218 45.48789391 21.29307863 60.65091784 13 73 C4.01046867 84.74494324 -6.63668027 91.73890319 -21 95 C-34.39618961 96.50438493 -46.83810344 93.54446439 -58 86 C-70.76325129 75.79299932 -77.72957013 65.29781442 -80 49 C-81.22453148 34.54046385 -77.79364751 21.8406976 -68.92578125 10.30078125 C-52.17829031 -9.25257205 -21.85498347 -15.42931052 0 0 Z"/>
<path transform="translate(446.79296875,445.4453125)" fill="#FBFDFE" d="M0 0 C11.54489648 8.13251115 18.3959834 18.87330617 21.45703125 32.6796875 C23.87413998 46.74682482 20.31597494 60.9616148 12.6796875 72.953125 C4.15918297 84.70139713 -6.85368551 90.42254435 -20.79296875 93.5546875 C-38.0429133 94.77314978 -50.26131824 91.06485346 -63.75390625 79.9375 C-73.36569906 71.16516508 -77.95382552 58.13290813 -79.06640625 45.43359375 C-79.55955737 29.3303128 -73.86931803 16.96190316 -62.98046875 5.3046875 C-45.32911389 -11.49967336 -20.25903487 -13.15691764 0 0 Z"/>
<path transform="translate(0,0)" fill="#E4E5E6" d="M0 0 C337.92 0 675.84 0 1024 0 C1023.67 0.66 1023.34 1.32 1023 2 C687.72 1.67 352.44 1.34 7 1 C7 338.26 7 675.52 7 1023 C342.61 1023 678.22 1023 1024 1023 C1024 1023.33 1024 1023.66 1024 1024 C686.08 1024 348.16 1024 0 1024 C0 999.91 0 975.82 0 951 C0.33 951 0.66 951 1 951 C1.33 637.5 1.66 324 2 1 C1.34 0.67 0.68 0.34 0 0 Z M4 1 C4 3.31 4 5.62 4 8 C4.33 8 4.66 8 5 8 C5 5.69 5 3.38 5 1 C4.67 1 4.34 1 4 1 Z M4 10 C5 14 5 14 5 14 Z M4 15 C4 18.3 4 21.6 4 25 C4.33 25 4.66 25 5 25 C5 21.7 5 18.4 5 15 C4.67 15 4.34 15 4 15 Z M4 26 C4 27.98 4 29.96 4 32 C4.33 32 4.66 32 5 32 C5 30.02 5 28.04 5 26 C4.67 26 4.34 26 4 26 Z M4 35 C4 36.65 4 38.3 4 40 C4.33 40 4.66 40 5 40 C5 38.35 5 36.7 5 35 C4.67 35 4.34 35 4 35 Z M4 43 C4 45.31 4 47.62 4 50 C4.33 50 4.66 50 5 50 C5 47.69 5 45.38 5 43 C4.67 43 4.34 43 4 43 Z M4 51 C4 54.3 4 57.6 4 61 C4.33 61 4.66 61 5 61 C5 57.7 5 54.4 5 51 C4.67 51 4.34 51 4 51 Z M4 62 C5 65 5 65 5 65 Z M4 69 C4 72.63 4 76.26 4 80 C4.33 80 4.66 80 5 80 C5 76.37 5 72.74 5 69 C4.67 69 4.34 69 4 69 Z M4 83 C4 84.98 4 86.96 4 89 C4.33 89 4.66 89 5 89 C5 87.02 5 85.04 5 83 C4.67 83 4.34 83 4 83 Z M4 91 C5 93 5 93 5 93 Z M4 95 C4 99.62 4 104.24 4 109 C4.33 109 4.66 109 5 109 C5 104.38 5 99.76 5 95 C4.67 95 4.34 95 4 95 Z M4 110 C5 113 5 113 5 113 Z M4 114 C5 117 5 117 5 117 Z M4 118 C5 122 5 122 5 122 Z M4 123 C4 124.98 4 126.96 4 129 C4.33 129 4.66 129 5 129 C5 127.02 5 125.04 5 123 C4.67 123 4.34 123 4 123 Z M4 130 C5 133 5 133 5 133 Z M4 141 C5 143 5 143 5 143 Z M4 144 C5 147 5 147 5 147 Z M4 148 C4 149.65 4 151.3 4 153 C4.33 153 4.66 153 5 153 C5 151.35 5 149.7 5 148 C4.67 148 4.34 148 4 148 Z M4 155 C4 156.98 4 158.96 4 161 C4.33 161 4.66 161 5 161 C5 159.02 5 157.04 5 155 C4.67 155 4.34 155 4 155 Z M4 162 C4 165.63 4 169.26 4 173 C4.33 173 4.66 173 5 173 C5 169.37 5 165.74 5 162 C4.67 162 4.34 162 4 162 Z M4 174 C5 178 5 178 5 178 Z M4 179 C4 180.65 4 182.3 4 184 C4.33 184 4.66 184 5 184 C5 182.35 5 180.7 5 179 C4.67 179 4.34 179 4 179 Z M4 186 C5 189 5 189 5 189 Z M4 190 C5 193 5 193 5 193 Z M4 196 C5 199 5 199 5 199 Z M4 200 C4 204.29 4 208.58 4 213 C4.33 213 4.66 213 5 213 C5 208.71 5 204.42 5 200 C4.67 200 4.34 200 4 200 Z M4 214 C5 217 5 217 5 217 Z M4 219 C4 222.3 4 225.6 4 229 C4.33 229 4.66 229 5 229 C5 225.7 5 222.4 5 219 C4.67 219 4.34 219 4 219 Z M4 230 C5 232 5 232 5 232 Z M4 233 C5 236 5 236 5 236 Z M4 238 C5 241 5 241 5 241 Z M4 242 C4 245.63 4 249.26 4 253 C4.33 253 4.66 253 5 253 C5 249.37 5 245.74 5 242 C4.67 242 4.34 242 4 242 Z M4 254 C5 256 5 256 5 256 Z M4 262 C4 265.96 4 269.92 4 274 C4.33 274 4.66 274 5 274 C5 270.04 5 266.08 5 262 C4.67 262 4.34 262 4 262 Z M4 278 C4 284.27 4 290.54 4 297 C4.33 297 4.66 297 5 297 C5 290.73 5 284.46 5 278 C4.67 278 4.34 278 4 278 Z M4 303 C5 305 5 305 5 305 Z M4 307 C4 308.65 4 310.3 4 312 C4.33 312 4.66 312 5 312 C5 310.35 5 308.7 5 307 C4.67 307 4.34 307 4 307 Z M4 313 C5 315 5 315 5 315 Z M4 318 C4 321.3 4 324.6 4 328 C4.33 328 4.66 328 5 328 C5 324.7 5 321.4 5 318 C4.67 318 4.34 318 4 318 Z M4 330 C5 332 5 332 5 332 Z M4 333 C5 335 5 335 5 335 Z M4 344 C5 346 5 346 5 346 Z M4 347 C4 348.65 4 350.3 4 352 C4.33 352 4.66 352 5 352 C5 350.35 5 348.7 5 347 C4.67 347 4.34 347 4 347 Z M4 354 C5 357 5 357 5 357 Z M4 358 C5 361 5 361 5 361 Z M4 362 C5 365 5 365 5 365 Z M4 366 C5 369 5 369 5 369 Z M4 370 C5 373 5 373 5 373 Z M4 374 C4 377.96 4 381.92 4 386 C4.33 386 4.66 386 5 386 C5 382.04 5 378.08 5 374 C4.67 374 4.34 374 4 374 Z M4 387 C4 388.65 4 390.3 4 392 C4.33 392 4.66 392 5 392 C5 390.35 5 388.7 5 387 C4.67 387 4.34 387 4 387 Z M4 393 C5 397 5 397 5 397 Z M4 398 C5 402 5 402 5 402 Z M4 403 C4 404.98 4 406.96 4 409 C4.33 409 4.66 409 5 409 C5 407.02 5 405.04 5 403 C4.67 403 4.34 403 4 403 Z M4 414 C5 417 5 417 5 417 Z M4 418 C4 420.64 4 423.28 4 426 C4.33 426 4.66 426 5 426 C5 423.36 5 420.72 5 418 C4.67 418 4.34 418 4 418 Z M4 428 C4 429.65 4 431.3 4 433 C4.33 433 4.66 433 5 433 C5 431.35 5 429.7 5 428 C4.67 428 4.34 428 4 428 Z M4 435 C4 438.3 4 441.6 4 445 C4.33 445 4.66 445 5 445 C5 441.7 5 438.4 5 435 C4.67 435 4.34 435 4 435 Z M4 446 C4 449.96 4 453.92 4 458 C4.33 458 4.66 458 5 458 C5 454.04 5 450.08 5 446 C4.67 446 4.34 446 4 446 Z M4 459 C4 460.98 4 462.96 4 465 C4.33 465 4.66 465 5 465 C5 463.02 5 461.04 5 459 C4.67 459 4.34 459 4 459 Z M4 467 C4 468.98 4 470.96 4 473 C4.33 473 4.66 473 5 473 C5 471.02 5 469.04 5 467 C4.67 467 4.34 467 4 467 Z M4 483 C4 484.98 4 486.96 4 489 C4.33 489 4.66 489 5 489 C5 487.02 5 485.04 5 483 C4.67 483 4.34 483 4 483 Z M4 491 C5 493 5 493 5 493 Z M4 494 C5 497 5 497 5 497 Z M4 499 C4 500.98 4 502.96 4 505 C4.33 505 4.66 505 5 505 C5 503.02 5 501.04 5 499 C4.67 499 4.34 499 4 499 Z M4 507 C5 510 5 510 5 510 Z M4 511 C4 515.29 4 519.58 4 524 C4.33 524 4.66 524 5 524 C5 519.71 5 515.42 5 511 C4.67 511 4.34 511 4 511 Z M4 526 C5 529 5 529 5 529 Z M4 530 C4 532.64 4 535.28 4 538 C4.33 538 4.66 538 5 538 C5 535.36 5 532.72 5 530 C4.67 530 4.34 530 4 530 Z M4 539 C4 540.98 4 542.96 4 545 C4.33 545 4.66 545 5 545 C5 543.02 5 541.04 5 539 C4.67 539 4.34 539 4 539 Z M4 546 C4 548.64 4 551.28 4 554 C4.33 554 4.66 554 5 554 C5 551.36 5 548.72 5 546 C4.67 546 4.34 546 4 546 Z M4 555 C4 556.98 4 558.96 4 561 C4.33 561 4.66 561 5 561 C5 559.02 5 557.04 5 555 C4.67 555 4.34 555 4 555 Z M4 563 C4 567.29 4 571.58 4 576 C4.33 576 4.66 576 5 576 C5 571.71 5 567.42 5 563 C4.67 563 4.34 563 4 563 Z M4 578 C5 581 5 581 5 581 Z M4 590 C5 593 5 593 5 593 Z M4 595 C4 602.26 4 609.52 4 617 C4.33 617 4.66 617 5 617 C5 609.74 5 602.48 5 595 C4.67 595 4.34 595 4 595 Z M4 619 C5 622 5 622 5 622 Z M4 623 C5 625 5 625 5 625 Z M4 626 C4 627.98 4 629.96 4 632 C4.33 632 4.66 632 5 632 C5 630.02 5 628.04 5 626 C4.67 626 4.34 626 4 626 Z M4 638 C5 641 5 641 5 641 Z M4 642 C5 645 5 645 5 645 Z M4 648 C4 649.98 4 651.96 4 654 C4.33 654 4.66 654 5 654 C5 652.02 5 650.04 5 648 C4.67 648 4.34 648 4 648 Z M4 656 C5 659 5 659 5 659 Z M4 660 C5 664 5 664 5 664 Z M4 667 C5 669 5 669 5 669 Z M4 670 C5 673 5 673 5 673 Z M4 675 C5 677 5 677 5 677 Z M4 678 C5 682 5 682 5 682 Z M4 683 C4 685.31 4 687.62 4 690 C4.33 690 4.66 690 5 690 C5 687.69 5 685.38 5 683 C4.67 683 4.34 683 4 683 Z M4 691 C4 693.64 4 696.28 4 699 C4.33 699 4.66 699 5 699 C5 696.36 5 693.72 5 691 C4.67 691 4.34 691 4 691 Z M4 700 C4 701.65 4 703.3 4 705 C4.33 705 4.66 705 5 705 C5 703.35 5 701.7 5 700 C4.67 700 4.34 700 4 700 Z M4 706 C5 708 5 708 5 708 Z M4 710 C5 713 5 713 5 713 Z M4 715 C5 717 5 717 5 717 Z M4 718 C5 721 5 721 5 721 Z M4 734 C5 738 5 738 5 738 Z M4 739 C5 741 5 741 5 741 Z M4 742 C4 743.65 4 745.3 4 747 C4.33 747 4.66 747 5 747 C5 745.35 5 743.7 5 742 C4.67 742 4.34 742 4 742 Z M4 750 C5 753 5 753 5 753 Z M4 756 C5 758 5 758 5 758 Z M4 759 C4 762.3 4 765.6 4 769 C4.33 769 4.66 769 5 769 C5 765.7 5 762.4 5 759 C4.67 759 4.34 759 4 759 Z M4 770 C4 772.31 4 774.62 4 777 C4.33 777 4.66 777 5 777 C5 774.69 5 772.38 5 770 C4.67 770 4.34 770 4 770 Z M4 780 C4 781.65 4 783.3 4 785 C4.33 785 4.66 785 5 785 C5 783.35 5 781.7 5 780 C4.67 780 4.34 780 4 780 Z M4 786 C5 789 5 789 5 789 Z M4 794 C5 797 5 797 5 797 Z M4 798 C5 800 5 800 5 800 Z M4 803 C5 805 5 805 5 805 Z M4 806 C5 808 5 808 5 808 Z M4 811 C5 813 5 813 5 813 Z M4 815 C5 817 5 817 5 817 Z M4 819 C5 823 5 823 5 823 Z M4 824 C4 827.3 4 830.6 4 834 C4.33 834 4.66 834 5 834 C5 830.7 5 827.4 5 824 C4.67 824 4.34 824 4 824 Z M4 835 C4 839.95 4 844.9 4 850 C4.33 850 4.66 850 5 850 C5 845.05 5 840.1 5 835 C4.67 835 4.34 835 4 835 Z M4 851 C4 852.98 4 854.96 4 857 C4.33 857 4.66 857 5 857 C5 855.02 5 853.04 5 851 C4.67 851 4.34 851 4 851 Z M4 859 C5 861 5 861 5 861 Z M4 862 C4 865.63 4 869.26 4 873 C4.33 873 4.66 873 5 873 C5 869.37 5 865.74 5 862 C4.67 862 4.34 862 4 862 Z M4 876 C4 877.65 4 879.3 4 881 C4.33 881 4.66 881 5 881 C5 879.35 5 877.7 5 876 C4.67 876 4.34 876 4 876 Z M4 882 C4 886.29 4 890.58 4 895 C4.33 895 4.66 895 5 895 C5 890.71 5 886.42 5 882 C4.67 882 4.34 882 4 882 Z M4 896 C5 898 5 898 5 898 Z M4 899 C5 901 5 901 5 901 Z M4 907 C5 909 5 909 5 909 Z M4 910 C5 913 5 913 5 913 Z M4 914 C4 918.29 4 922.58 4 927 C4.33 927 4.66 927 5 927 C5 922.71 5 918.42 5 914 C4.67 914 4.34 914 4 914 Z M4 936 C4 937.65 4 939.3 4 941 C4.33 941 4.66 941 5 941 C5 939.35 5 937.7 5 936 C4.67 936 4.34 936 4 936 Z M4 944 C4 945.65 4 947.3 4 949 C4.33 949 4.66 949 5 949 C5 947.35 5 945.7 5 944 C4.67 944 4.34 944 4 944 Z M4 950 C5 952 5 952 5 952 Z M4 966 C5 969 5 969 5 969 Z M4 971 C5 973 5 973 5 973 Z M4 984 C5 986 5 986 5 986 Z M4 988 C4 990.64 4 993.28 4 996 C4.33 996 4.66 996 5 996 C5 993.36 5 990.72 5 988 C4.67 988 4.34 988 4 988 Z M4 1000 C5 1002 5 1002 5 1002 Z M4 1003 C5 1005 5 1005 5 1005 Z M4 1008 C4 1010.31 4 1012.62 4 1015 C4.33 1015 4.66 1015 5 1015 C5 1012.69 5 1010.38 5 1008 C4.67 1008 4.34 1008 4 1008 Z M4 1016 C4 1018.31 4 1020.62 4 1023 C4.33 1023 4.66 1023 5 1023 C5 1020.69 5 1018.38 5 1016 C4.67 1016 4.34 1016 4 1016 Z"/>
<path transform="translate(5,24)" fill="#CDCECF" d="M0 0 C0.33 0 0.66 0 1 0 C2.1065505 8.89571732 2.13859581 17.72778363 2.12304783 26.67605782 C2.12378821 28.3743813 2.12496759 30.07270465 2.12654433 31.77102757 C2.12960778 36.43987213 2.12644285 41.10869485 2.12226619 45.77753779 C2.11882785 50.85602049 2.12120358 55.93450101 2.12284368 61.01298416 C2.12491678 69.91410433 2.12327473 78.81521781 2.11920547 87.7163372 C2.11317144 100.95198607 2.11286958 114.18763072 2.11374746 127.42328071 C2.11506157 149.68754446 2.11172643 171.95180554 2.10573006 194.21606827 C2.09980641 216.26297139 2.09595473 238.30987328 2.09487724 260.35677719 C2.09484283 261.04161909 2.09480842 261.72646098 2.09477296 262.43205567 C2.09445976 268.68708598 2.09417207 274.9421163 2.09391499 281.19714661 C2.09327562 296.74603923 2.09231631 312.29493181 2.09113979 327.84382439 C2.09108648 328.5518651 2.09103316 329.25990582 2.09097823 329.98940231 C2.08835708 364.42652909 2.08204967 398.86365505 2.07543945 433.30078125 C2.07314778 445.25034586 2.07087241 457.19991047 2.06866455 469.1494751 C2.0685276 469.89059427 2.06839065 470.63171344 2.06824955 471.39529077 C2.06190476 505.85193805 2.05817965 540.30858546 2.05512976 574.76523317 C2.05493169 577.00235022 2.0547325 579.23946728 2.05453308 581.47658434 C2.05321329 596.30215066 2.05193864 611.12771699 2.05069422 625.95328332 C2.04821775 655.45215439 2.04547607 684.95102542 2.04255217 714.44989645 C2.04241293 715.85469055 2.04227388 717.25948466 2.04213501 718.66427876 C2.03357 805.2866623 2.0192194 891.90904495 2 999 C1.34 999 0.68 999 0 999 C-0.71718624 993.83970466 -1.12506247 988.88027294 -1.12534916 983.65965372 C-1.12745264 982.61327846 -1.12745264 982.61327846 -1.12959861 981.5457643 C-1.13306887 979.21622485 -1.12944664 976.88675222 -1.12584114 974.55721378 C-1.12688472 972.85981841 -1.12836629 971.16242326 -1.13024551 969.46502861 C-1.13414592 964.78943102 -1.13180623 960.11385402 -1.12846755 955.43825675 C-1.12593489 950.355914 -1.12918916 945.27357445 -1.13171089 940.19123214 C-1.13532677 931.28020503 -1.13521043 922.36918398 -1.13266373 913.45815659 C-1.12888709 900.20768921 -1.13081191 886.95722695 -1.13387203 873.70675961 C-1.13883715 851.41809285 -1.13901548 829.12942808 -1.13629532 806.84076118 C-1.13621252 806.16202589 -1.13612973 805.48329059 -1.13604442 804.78398755 C-1.13596149 804.10417066 -1.13587856 803.42435377 -1.13579312 802.72393637 C-1.13327109 782.02253523 -1.13261802 761.32113507 -1.13381577 740.61973381 C-1.13389324 739.23408909 -1.1339704 737.84844438 -1.13404724 736.46279966 C-1.13435769 730.8947036 -1.13467636 725.32660754 -1.135007 719.75851148 C-1.13592403 704.19355802 -1.13649461 688.62860456 -1.13679314 673.06365108 C-1.13680678 672.35485424 -1.13682043 671.6460574 -1.13683449 670.91578187 C-1.13724379 648.32880348 -1.13611668 625.74182543 -1.13394356 603.15484715 C-1.13387331 602.42218728 -1.13380306 601.68952741 -1.13373068 600.93466573 C-1.13258569 589.03626671 -1.13136625 577.13786768 -1.13014051 565.23946866 C-1.12528224 518.02951787 -1.12551115 470.81956992 -1.13037109 423.60961914 C-1.13159223 411.70892875 -1.13280326 399.80823835 -1.13394356 387.90754795 C-1.13401401 387.17483051 -1.13408445 386.44211307 -1.13415704 385.68719207 C-1.13631217 363.11772699 -1.1372277 340.54826214 -1.13679314 317.97879696 C-1.13677955 317.27061313 -1.13676597 316.56242931 -1.13675197 315.83278537 C-1.13643954 300.28950789 -1.135806 284.74623043 -1.13488263 269.20295298 C-1.13455348 263.6420049 -1.1342404 258.08105682 -1.13393192 252.52010874 C-1.13385453 251.1366365 -1.1337758 249.75316425 -1.13369573 248.36969201 C-1.13250077 227.66769475 -1.13352118 206.9656986 -1.13604442 186.26370149 C-1.13612722 185.58438662 -1.13621001 184.90507175 -1.13629532 184.20517159 C-1.136378 183.52710479 -1.13646068 182.849038 -1.13654587 182.15042373 C-1.13929974 159.3167158 -1.13829643 136.48301016 -1.13301457 113.64930249 C-1.13006735 100.47206283 -1.12990232 87.29482994 -1.13366075 74.11759045 C-1.13589094 65.3330194 -1.13452985 56.54845381 -1.13015598 47.76388358 C-1.12776068 42.74749429 -1.12699775 37.73111851 -1.13056196 32.71472961 C-1.1337641 28.16188221 -1.1324612 23.60906044 -1.1273813 19.05621495 C-1.12636435 17.40924135 -1.12706549 15.76226567 -1.12958724 14.11529368 C-1.13274472 11.89779782 -1.1298705 9.68039356 -1.12534916 7.46290213 C-1.1252814 6.22948148 -1.12521365 4.99606084 -1.12514383 3.72526381 C-1 1 -1 1 0 0 Z"/>
<path transform="translate(444.16015625,283.97265625)" fill="#0184FE" d="M0 0 C7.03851476 3.930211 11.40060163 9.29765649 13.83984375 17.02734375 C14.90079604 24.95922517 14.18504965 31.60010829 9.2578125 38.12109375 C4.34852464 44.02507392 -0.06687824 47.50457328 -7.82421875 48.30078125 C-16.29464767 48.59132367 -22.48044387 47.01449827 -29.0078125 41.453125 C-34.0412828 36.14757523 -36.20686312 29.76331978 -36.59765625 22.52734375 C-36.30737164 14.96674914 -32.5550239 8.18765194 -27.16015625 3.02734375 C-18.78964633 -2.70463587 -9.43831154 -4.18837138 0 0 Z"/>
<path transform="translate(444.91015625,672.51171875)" fill="#0085FE" d="M0 0 C4.91492342 3.50016042 7.70694627 7.97034267 10.08984375 13.48828125 C11.10636664 21.38235989 10.98876726 28.95638324 6.08984375 35.48828125 C0.93795891 41.2841517 -3.74800267 44.92133953 -11.61328125 45.78515625 C-19.09382251 46.130412 -24.82499874 44.99259713 -30.91015625 40.48828125 C-36.39816825 34.84086641 -39.19023882 29.10138671 -39.28515625 21.17578125 C-39.13106837 13.13601955 -36.98790597 8.51521844 -31.59765625 2.67578125 C-22.63682629 -5.58704722 -10.48788548 -6.03435875 0 0 Z"/>
<path transform="translate(430.9296875,465.609375)" fill="#0183FE" d="M0 0 C6.1857345 4.15494619 10.51762798 10.08468982 12.0703125 17.390625 C13.069703 24.27392709 11.6535813 30.43762109 8.0703125 36.390625 C3.052905 42.09352271 -1.75164368 45.80706768 -9.390625 46.66796875 C-17.23460599 47.11839343 -23.58091815 45.18667306 -29.55859375 39.96875 C-35.47116264 33.40315111 -36.52018688 27.09625786 -36.265625 18.5390625 C-35.40265132 10.45119293 -31.21597196 6.26665074 -25.24609375 1.0546875 C-17.69973174 -4.36647644 -8.13427605 -4.1400258 0 0 Z"/>
<path transform="translate(4,927)" fill="#C5C5C6" d="M0 0 C2.86397008 2.43622165 2.98500795 2.83828718 3.36076355 6.8914032 C3.3694771 8.5534881 3.36144845 10.21570887 3.34057617 11.87768555 C3.34101425 12.78520569 3.34145233 13.69272583 3.34190369 14.62774658 C3.33981169 17.63095526 3.31646112 20.63360745 3.29296875 23.63671875 C3.28737426 25.71751094 3.28310347 27.79830707 3.28010559 29.87910461 C3.26864526 35.35860076 3.23916773 40.83785876 3.20599365 46.31726074 C3.17531844 51.90743793 3.1616057 57.49765355 3.14648438 63.08789062 C3.11429927 74.05869845 3.06308847 85.02932943 3 96 C2.34 96 1.68 96 1 96 C0.18138458 90.28958539 -0.13962141 84.77760204 -0.11352539 79.01367188 C-0.11367142 78.15418945 -0.11381744 77.29470703 -0.1139679 76.40917969 C-0.11327662 73.59567658 -0.1055213 70.78224141 -0.09765625 67.96875 C-0.09578928 66.00720252 -0.09436669 64.04565456 -0.09336853 62.08410645 C-0.08956534 56.94179987 -0.07975397 51.7995219 -0.06866455 46.65722656 C-0.05840302 41.40169664 -0.05386078 36.14616207 -0.04882812 30.890625 C-0.0381296 20.59373749 -0.02107977 10.29687113 0 0 Z"/>
<path transform="translate(0,807)" fill="#B0B1B3" d="M0 0 C0.33 0 0.66 0 1 0 C1 47.19 1 94.38 1 143 C0.67 143 0.34 143 0 143 C0 95.81 0 48.62 0 0 Z"/>
<path transform="translate(7,296)" fill="#CCCDCD" d="M0 0 C0.02320285 7.34551641 0.04095554 14.69102487 0.05181217 22.03657055 C0.05702364 25.44765203 0.06408968 28.85870837 0.07543945 32.26977539 C0.08841505 36.19417008 0.09324258 40.11855471 0.09765625 44.04296875 C0.10281754 45.26396774 0.10797882 46.48496674 0.11329651 47.7429657 C0.11337204 48.8837709 0.11344757 50.02457611 0.11352539 51.19995117 C0.115746 52.20144699 0.11796661 53.20294281 0.12025452 54.23478699 C0.00323381 56.92563953 -0.39569646 59.37941825 -1 62 C-1.66 61.67 -2.32 61.34 -3 61 C-3 41.2 -3 21.4 -3 1 C-1 0 -1 0 0 0 Z"/>
<path transform="translate(0,47)" fill="#B0B2B3" d="M0 0 C0.33 0 0.66 0 1 0 C1 38.61 1 77.22 1 117 C0.67 117 0.34 117 0 117 C0 78.39 0 39.78 0 0 Z"/>
<path transform="translate(0,191)" fill="#AFAFB2" d="M0 0 C0.33 0 0.66 0 1 0 C1 36.3 1 72.6 1 110 C0.67 110 0.34 110 0 110 C0 73.7 0 37.4 0 0 Z"/>
<path transform="translate(4,927)" fill="#CFCFD0" d="M0 0 C3 3 3 3 3.35644531 5.99926758 C3.34709961 7.20220459 3.33775391 8.4051416 3.328125 9.64453125 C3.32296875 10.96130859 3.3178125 12.27808594 3.3125 13.63476562 C3.3021875 14.32094971 3.291875 15.00713379 3.28125 15.71411133 C3.2502663 17.79461818 3.24029242 19.87436398 3.234375 21.95507812 C3.19460842 27.73473339 3.08472592 33.3019282 2 39 C1.34 38.67 0.68 38.34 0 38 C0 25.46 0 12.92 0 0 Z"/>
<path transform="translate(0,302)" fill="#AFB1B4" d="M0 0 C0.33 0 0.66 0 1 0 C1 26.4 1 52.8 1 80 C0.67 80 0.34 80 0 80 C0 53.6 0 27.2 0 0 Z"/>
<path transform="translate(0,527)" fill="#B3B5B8" d="M0 0 C0.33 0 0.66 0 1 0 C1 26.07 1 52.14 1 79 C0.67 79 0.34 79 0 79 C0 52.93 0 26.86 0 0 Z"/>
<path transform="translate(7,260)" fill="#D6D6D8" d="M0 0 C0.04942365 5.072007 0.08573068 10.14387394 0.10986328 15.21606445 C0.11992326 16.94167523 0.13357276 18.66726895 0.15087891 20.39282227 C0.17512754 22.8726014 0.18648301 25.35215523 0.1953125 27.83203125 C0.20563507 28.60400345 0.21595764 29.37597565 0.22659302 30.17134094 C0.22739422 33.99281476 0.17242595 35.74136107 -2 39 C-3.19388403 11.83596307 -3.19388403 11.83596307 -3 1 C-1 0 -1 0 0 0 Z"/>
<path transform="translate(4,392)" fill="#C9CBCD" d="M0 0 C0.66 0 1.32 0 2 0 C3.12367294 3.37101881 3.12939944 5.94431536 3.1328125 9.49609375 C3.13410156 10.77677734 3.13539062 12.05746094 3.13671875 13.37695312 C3.13462402 14.043479 3.1325293 14.71000488 3.13037109 15.39672852 C3.1250285 17.42667142 3.13031905 19.45639217 3.13671875 21.48632812 C3.13542969 22.76830078 3.13414063 24.05027344 3.1328125 25.37109375 C3.13112061 27.1334436 3.13112061 27.1334436 3.12939453 28.93139648 C3.02164956 31.48657876 2.75266334 33.5727168 2 36 C1.34 36 0.68 36 0 36 C0 24.12 0 12.24 0 0 Z"/>
<path transform="translate(6,992)" fill="#CFD0D0" d="M0 0 C0.33 0 0.66 0 1 0 C1 10.23 1 20.46 1 31 C0.34 31 -0.32 31 -1 31 C-1.85692753 25.04949521 -2.18278346 19.25887368 -2.1875 13.25 C-2.19974609 12.41339844 -2.21199219 11.57679688 -2.22460938 10.71484375 C-2.22654297 9.90660156 -2.22847656 9.09835937 -2.23046875 8.265625 C-2.23457764 7.54149414 -2.23868652 6.81736328 -2.24291992 6.07128906 C-1.9641295 3.69414543 -1.17586218 2.06802613 0 0 Z"/>
<path transform="translate(5,824)" fill="#D3D4D5" d="M0 0 C0.66 0 1.32 0 2 0 C2 11.55 2 23.1 2 35 C-1.45845288 31.54154712 -0.96969195 26.87447632 -1.1328125 22.16796875 C-1.11820854 14.7272488 -0.99446279 7.38743784 0 0 Z"/>
<path transform="translate(0,607)" fill="#B3B5B8" d="M0 0 C0.33 0 0.66 0 1 0 C1 23.1 1 46.2 1 70 C0.67 70 0.34 70 0 70 C0 46.9 0 23.8 0 0 Z"/>
<path transform="translate(6,584)" fill="#D5D6D8" d="M0 0 C0.33 0 0.66 0 1 0 C1 10.89 1 21.78 1 33 C-2.69053999 29.30946001 -1.58350786 23.19032018 -1.75 18.1875 C-1.80542969 16.99833984 -1.86085938 15.80917969 -1.91796875 14.58398438 C-1.96050781 13.43607422 -2.00304687 12.28816406 -2.046875 11.10546875 C-2.08651367 10.05512451 -2.12615234 9.00478027 -2.16699219 7.92260742 C-1.9926814 4.87191374 -1.29382722 2.74890763 0 0 Z"/>
<path transform="translate(0,702)" fill="#B1B2B5" d="M0 0 C0.33 0 0.66 0 1 0 C1 21.12 1 42.24 1 64 C0.67 64 0.34 64 0 64 C0 42.88 0 21.76 0 0 Z"/>
<path transform="translate(7,116)" fill="#D1D1D2" d="M0 0 C0 8.91 0 17.82 0 27 C-0.99 27 -1.98 27 -3 27 C-3 18.42 -3 9.84 -3 1 C-1 0 -1 0 0 0 Z"/>
<path transform="translate(0,463)" fill="#B1B3B7" d="M0 0 C0.33 0 0.66 0 1 0 C1 20.79 1 41.58 1 63 C0.67 63 0.34 63 0 63 C0 42.21 0 21.42 0 0 Z"/>
<path transform="translate(7,704)" fill="#C4C5C7" d="M0 0 C0.02892857 3.95831809 0.04677427 7.91660917 0.0625 11.875 C0.07087891 13.00292969 0.07925781 14.13085938 0.08789062 15.29296875 C0.09111328 16.36933594 0.09433594 17.44570313 0.09765625 18.5546875 C0.10289307 19.54968262 0.10812988 20.54467773 0.11352539 21.56982422 C0 24 0 24 -1 26 C-1.66 25.67 -2.32 25.34 -3 25 C-3 17.08 -3 9.16 -3 1 C-1 0 -1 0 0 0 Z"/>
<path transform="translate(5,799)" fill="#BCBDBE" d="M0 0 C0.33 0 0.66 0 1 0 C1.75363052 3.35091771 2.11979937 6.43109812 2.09765625 9.86328125 C2.09282227 11.19262695 2.09282227 11.19262695 2.08789062 12.54882812 C2.07951172 13.46083984 2.07113281 14.37285156 2.0625 15.3125 C2.05798828 16.24384766 2.05347656 17.17519531 2.04882812 18.13476562 C2.03709234 20.42324373 2.02067363 22.71158808 2 25 C1.01 24.67 0.02 24.34 -1 24 C-1.02887236 20.18751574 -1.04675492 16.3750593 -1.0625 12.5625 C-1.07087891 11.47388672 -1.07925781 10.38527344 -1.08789062 9.26367188 C-1.09111328 8.22919922 -1.09433594 7.19472656 -1.09765625 6.12890625 C-1.10289307 5.17056885 -1.10812988 4.21223145 -1.11352539 3.22485352 C-1 1 -1 1 0 0 Z"/>
<path transform="translate(6,677)" fill="#D2D3D4" d="M0 0 C0.33 0 0.66 0 1 0 C1 8.91 1 17.82 1 27 C0.34 27.33 -0.32 27.66 -1 28 C-1.97083273 23.09923636 -2.18315688 18.41037688 -2.1875 13.4375 C-2.19974609 12.69564453 -2.21199219 11.95378906 -2.22460938 11.18945312 C-2.23580706 6.99778665 -1.91889991 3.83021523 0 0 Z"/>
<path transform="translate(5,560)" fill="#C6C7CA" d="M0 0 C0.33 0 0.66 0 1 0 C2.23095456 4.83447475 2.21980546 9.60682182 2.25 14.5625 C2.270625 15.41263672 2.29125 16.26277344 2.3125 17.13867188 C2.31765625 17.96044922 2.3228125 18.78222656 2.328125 19.62890625 C2.3374707 20.37213135 2.34681641 21.11535645 2.35644531 21.88110352 C1.90608122 24.55830212 0.74523468 25.9630289 -1 28 C-1.02886338 23.52084672 -1.04675187 19.04171709 -1.0625 14.5625 C-1.07087891 13.28310547 -1.07925781 12.00371094 -1.08789062 10.68554688 C-1.09111328 9.47060547 -1.09433594 8.25566406 -1.09765625 7.00390625 C-1.10289307 5.87799072 -1.10812988 4.7520752 -1.11352539 3.59204102 C-1 1 -1 1 0 0 Z"/>
<path transform="translate(436,669)" fill="#0669FE" d="M0 0 C0 0.33 0 0.66 0 1 C-0.9178125 1.06316406 -1.835625 1.12632812 -2.78125 1.19140625 C-10.26391136 1.9381004 -15.11992198 2.75702076 -20.3515625 8.34375 C-22.11373538 10.11427441 -23.7758598 10.91119497 -26 12 C-27.26804566 14.0335948 -27.26804566 14.0335948 -28 16 C-27.24344982 9.79628852 -23.63111539 6.86204929 -19 3 C-12.91933471 -0.74194787 -6.91604455 -0.30662266 0 0 Z"/>
<path transform="translate(6,536)" fill="#D4D6D8" d="M0 0 C0.33 0 0.66 0 1 0 C1 9.57 1 19.14 1 29 C0.67 29 0.34 29 0 29 C-2.16045942 18.67994829 -2.70953548 10.23333488 0 0 Z"/>
<path transform="translate(481,688)" fill="#1477FC" d="M0 0 C0.33 0 0.66 0 1 0 C2.54526713 14.05004426 1.2087053 21.82236989 -6 34 C-6.66 33.67 -7.32 33.34 -8 33 C-7.66226562 32.29875 -7.32453125 31.5975 -6.9765625 30.875 C-2.00951707 20.30926175 -0.62363899 11.68502522 0 0 Z"/>
<path transform="translate(0,414)" fill="#B1B3B6" d="M0 0 C0.33 0 0.66 0 1 0 C1 15.84 1 31.68 1 48 C0.67 48 0.34 48 0 48 C0 32.16 0 16.32 0 0 Z"/>
<path transform="translate(5,517)" fill="#CECFD2" d="M0 0 C0.66 0 1.32 0 2 0 C2.02903577 3.10414702 2.0468107 6.20825909 2.0625 9.3125 C2.07087891 10.19357422 2.07925781 11.07464844 2.08789062 11.98242188 C2.09111328 12.82998047 2.09433594 13.67753906 2.09765625 14.55078125 C2.10289307 15.33106689 2.10812988 16.11135254 2.11352539 16.9152832 C2 19 2 19 1 22 C0.34 21.67 -0.32 21.34 -1 21 C-1.18451025 6.21867882 -1.18451025 6.21867882 0 0 Z"/>
<path transform="translate(6,97)" fill="#D5D6D6" d="M0 0 C0.33 0 0.66 0 1 0 C1 6.27 1 12.54 1 19 C0.34 19.33 -0.32 19.66 -1 20 C-2.09821788 13.53271691 -2.02705778 7.49328753 -1 1 C-0.67 0.67 -0.34 0.34 0 0 Z"/>
<path transform="translate(4,80)" fill="#C8C8C9" d="M0 0 C0.99 0.33 1.98 0.66 3 1 C3 6.28 3 11.56 3 17 C2.34 17.33 1.68 17.66 1 18 C0.22959149 11.93303301 -0.09706112 6.11485027 0 0 Z"/>
<path transform="translate(0,767)" fill="#AFB1B3" d="M0 0 C0.33 0 0.66 0 1 0 C1 12.87 1 25.74 1 39 C0.67 39 0.34 39 0 39 C0 26.13 0 13.26 0 0 Z"/>
<path transform="translate(5,376)" fill="#D5D7D8" d="M0 0 C0.66 0 1.32 0 2 0 C2 6.27 2 12.54 2 19 C-2.02258782 12.96611827 -0.88131156 6.86067154 0 0 Z"/>
<path transform="translate(6,296)" fill="#C2C4C4" d="M0 0 C0.33 0 0.66 0 1 0 C1 4.95 1 9.9 1 15 C0.01 15.495 0.01 15.495 -1 16 C-1.19601608 14.25093341 -1.38147403 12.50068154 -1.5625 10.75 C-1.66691406 9.77546875 -1.77132813 8.8009375 -1.87890625 7.796875 C-1.99039073 5.22194308 -1.83729168 3.41761043 -1 1 C-0.67 0.67 -0.34 0.34 0 0 Z"/>
<path transform="translate(407,699)" fill="#0867FD" d="M0 0 C0.33 0.66 0.66 1.32 1 2 C1.66 2 2.32 2 3 2 C3.0825 2.721875 3.165 3.44375 3.25 4.1875 C4.34079449 8.27797935 6.26698543 10.85457406 9.8203125 13.203125 C11.52142094 14.18109018 13.25856493 15.09579333 15 16 C14.01 16.33 13.02 16.66 12 17 C6.21717103 14.05515075 2.5955643 9.84001967 0 4 C0 2.68 0 1.36 0 0 Z"/>
<path transform="translate(5,131)" fill="#C3C4C4" d="M0 0 C0.66 0.33 1.32 0.66 2 1 C2 4.63 2 8.26 2 12 C1.01 12 0.02 12 -1 12 C-1.02698189 10.37509046 -1.04638757 8.75005367 -1.0625 7.125 C-1.07410156 6.22007812 -1.08570313 5.31515625 -1.09765625 4.3828125 C-1 2 -1 2 0 0 Z"/>
<path transform="translate(5,472)" fill="#BCBDC0" d="M0 0 C0.66 0 1.32 0 2 0 C2.07654536 4.51617599 2.10228696 8.59085217 1 13 C-1.60585556 9.09121666 -1.22321871 5.53878034 -1 1 C-0.67 0.67 -0.34 0.34 0 0 Z"/>
<path transform="translate(4,328)" fill="#BDBFC0" d="M0 0 C0.99 0 1.98 0 3 0 C3 3.3 3 6.6 3 10 C2.34 10 1.68 10 1 10 C0.67 10.66 0.34 11.32 0 12 C0 8.04 0 4.08 0 0 Z"/>
<path transform="translate(4,952)" fill="#ABACAD" d="M0 0 C0.99 0.495 0.99 0.495 2 1 C2.99847037 5.62927172 3.013244 9.38411065 2 14 C1.34 13.67 0.68 13.34 0 13 C0 8.71 0 4.42 0 0 Z"/>
<path transform="translate(6,992)" fill="#C5C5C5" d="M0 0 C0.33 0 0.66 0 1 0 C1.07654536 4.51617599 1.10228696 8.59085217 0 13 C-2.215015 9.6774775 -2.19410876 9.12268409 -1.6875 5.375 C-1.58824219 4.57835937 -1.48898438 3.78171875 -1.38671875 2.9609375 C-1 1 -1 1 0 0 Z"/>
<path transform="translate(0,22)" fill="#B1B2B4" d="M0 0 C0.33 0 0.66 0 1 0 C1 7.92 1 15.84 1 24 C0.67 24 0.34 24 0 24 C0 16.08 0 8.16 0 0 Z"/>
<path transform="translate(0,383)" fill="#B1B2B6" d="M0 0 C0.33 0 0.66 0 1 0 C1 7.59 1 15.18 1 23 C0.67 23 0.34 23 0 23 C0 15.41 0 7.82 0 0 Z"/>
<path transform="translate(6,815)" fill="#C6C7C8" d="M0 0 C0.33 0 0.66 0 1 0 C1 2.97 1 5.94 1 9 C0.01 8.67 -0.98 8.34 -2 8 C-2.125 5.125 -2.125 5.125 -2 2 C-1.34 1.34 -0.68 0.68 0 0 Z"/>
<path transform="translate(4,927)" fill="#A8A9AA" d="M0 0 C3 3 3 3 3.1875 6.1875 C3.0946875 7.5796875 3.0946875 7.5796875 3 9 C2.01 9 1.02 9 0 9 C0 6.03 0 3.06 0 0 Z"/>
<path transform="translate(6,353)" fill="#D4D5D5" d="M0 0 C0.33 0 0.66 0 1 0 C1 3.63 1 7.26 1 11 C0.01 11.495 0.01 11.495 -1 12 C-2.45606519 7.47907032 -1.27032841 4.48351204 0 0 Z"/>
<path transform="translate(5,272)" fill="#C8C9C9" d="M0 0 C0.66 0 1.32 0 2 0 C2 2.64 2 5.28 2 8 C1.34 8 0.68 8 0 8 C-1.125 2.25 -1.125 2.25 0 0 Z"/>
<path transform="translate(6,237)" fill="#D2D1D3" d="M0 0 C0.33 0 0.66 0 1 0 C1 2.97 1 5.94 1 9 C0.01 9.495 0.01 9.495 -1 10 C-2.23076923 4.58461538 -2.23076923 4.58461538 -1.0625 1.625 C-0.5365625 0.820625 -0.5365625 0.820625 0 0 Z"/>
<path transform="translate(643,198)" fill="#0486F0" d="M0 0 C0.99 0.33 1.98 0.66 3 1 C1.35 2.98 -0.3 4.96 -2 7 C-2.66 6.34 -3.32 5.68 -4 5 C-2.68 3.35 -1.36 1.7 0 0 Z"/>
<path transform="translate(6,191)" fill="#C8C8C8" d="M0 0 C0.33 0 0.66 0 1 0 C1 2.64 1 5.28 1 8 C0.01 8 -0.98 8 -2 8 C-2 6.02 -2 4.04 -2 2 C-1.34 2 -0.68 2 0 2 C0 1.34 0 0.68 0 0 Z"/>
<path transform="translate(0,2)" fill="#B2B3B5" d="M0 0 C0.33 0 0.66 0 1 0 C1 5.94 1 11.88 1 18 C0.67 18 0.34 18 0 18 C0 12.06 0 6.12 0 0 Z"/>
<path transform="translate(5,231)" fill="#C3C4C5" d="M0 0 C0.66 0 1.32 0 2 0 C2.125 2.875 2.125 2.875 2 6 C1.34 6.66 0.68 7.32 0 8 C-1.09658936 4.71023192 -0.79953138 3.28696233 0 0 Z"/>
<path transform="translate(7,64)" fill="#C9CACB" d="M0 0 C0 2.64 0 5.28 0 8 C-0.66 8 -1.32 8 -2 8 C-2.33 5.69 -2.66 3.38 -3 1 C-1 0 -1 0 0 0 Z"/>
<path transform="translate(0,678)" fill="#B2B3B5" d="M0 0 C0.33 0 0.66 0 1 0 C1 4.95 1 9.9 1 15 C0.67 15 0.34 15 0 15 C0 10.05 0 5.1 0 0 Z"/>
<path transform="translate(0,176)" fill="#B0B1B3" d="M0 0 C0.33 0 0.66 0 1 0 C1 4.62 1 9.24 1 14 C0.67 14 0.34 14 0 14 C0 9.38 0 4.76 0 0 Z"/>
<path transform="translate(445,532)" fill="#66B8FF" d="M0 0 C0.99 0 1.98 0 3 0 C2.34 1.32 1.68 2.64 1 4 C0.34 4 -0.32 4 -1 4 C-0.67 2.68 -0.34 1.36 0 0 Z"/>
<path transform="translate(384,327)" fill="#71BDFE" d="M0 0 C2 3 2 3 3 6 C2.01 6 1.02 6 0 6 C0 4.02 0 2.04 0 0 Z"/>
<path transform="translate(0,167)" fill="#AEAFB1" d="M0 0 C0.33 0 0.66 0 1 0 C1 2.64 1 5.28 1 8 C0.67 8 0.34 8 0 8 C0 5.36 0 2.72 0 0 Z"/>
<path transform="translate(0,407)" fill="#B0B2B5" d="M0 0 C0.33 0 0.66 0 1 0 C1 1.98 1 3.96 1 6 C0.67 6 0.34 6 0 6 C0 4.02 0 2.04 0 0 Z"/>
<path transform="translate(397,346)" fill="#71BAFD" d="M0 0 C1.485 0.99 1.485 0.99 3 2 C2.01 2.33 1.02 2.66 0 3 C0 2.01 0 1.02 0 0 Z"/>
<path transform="translate(0,697)" fill="#B0B2B4" d="M0 0 C1 4 1 4 1 4 Z"/>
<path transform="translate(461,518)" fill="#66B9FF" d="M0 0 C0.99 0.33 1.98 0.66 3 1 C2.01 1 1.02 1 0 1 C0 0.67 0 0.34 0 0 Z"/>
<path transform="translate(462,516)" fill="#64B9FF" d="M0 0 C0.66 0 1.32 0 2 0 C1.67 0.66 1.34 1.32 1 2 C0.67 1.34 0.34 0.68 0 0 Z"/>
<path transform="translate(396,350)" fill="#61B5FD" d="M0 0 C0.66 0 1.32 0 2 0 C1.67 0.66 1.34 1.32 1 2 C0.67 1.34 0.34 0.68 0 0 Z"/>
<path transform="translate(387,333)" fill="#76C1FF" d="M0 0 C0.33 0.66 0.66 1.32 1 2 C0.34 1.67 -0.32 1.34 -1 1 C-0.67 0.67 -0.34 0.34 0 0 Z"/>
<path transform="translate(548,831)" fill="#0584F3" d="M0 0 C2 1 2 1 2 1 Z"/>
<path transform="translate(544,831)" fill="#0185F5" d="M0 0 C2 1 2 1 2 1 Z"/>
<path transform="translate(541,831)" fill="#0285F5" d="M0 0 C2 1 2 1 2 1 Z"/>
<path transform="translate(337,771)" fill="#0483F0" d="M0 0 C2 1 2 1 2 1 Z"/>
<path transform="translate(0,0)" fill="#B1B2B5" d=""/>
<path transform="translate(0,0)" fill="#0785F5" d=""/>
<path transform="translate(381,664)" fill="#4CAFFD" d="M0 0 C2 1 2 1 2 1 Z"/>
<path transform="translate(0,0)" fill="#0686F6" d=""/>
<path transform="translate(0,0)" fill="#0788F7" d=""/>
<path transform="translate(0,0)" fill="#626161" d=""/>
<path transform="translate(0,0)" fill="#524F51" d=""/>
<path transform="translate(0,0)" fill="#545A61" d=""/>
<path transform="translate(0,0)" fill="#615E5C" d=""/>
<path transform="translate(0,0)" fill="#2B3032" d=""/>
<path transform="translate(0,0)" fill="#0186F8" d=""/>
<path transform="translate(0,0)" fill="#0383F3" d=""/>
<path transform="translate(0,0)" fill="#0383F2" d=""/>
<path transform="translate(0,0)" fill="#0584F3" d=""/>
<path transform="translate(0,0)" fill="#0884F2" d=""/>
<path transform="translate(0,0)" fill="#0583F2" d=""/>
<path transform="translate(0,0)" fill="#0385F4" d=""/>
<path transform="translate(0,0)" fill="#0680EC" d=""/>
<path transform="translate(0,0)" fill="#0282F7" d=""/>
<path transform="translate(0,0)" fill="#0283F5" d=""/>
<path transform="translate(0,0)" fill="#0584F2" d=""/>
<path transform="translate(0,0)" fill="#0683F3" d=""/>
<path transform="translate(0,0)" fill="#0284F6" d=""/>
<path transform="translate(0,0)" fill="#0183F6" d=""/>
<path transform="translate(0,0)" fill="#0582F1" d=""/>
<path transform="translate(0,0)" fill="#0481F1" d=""/>
<path transform="translate(0,0)" fill="#0385F0" d=""/>
<path transform="translate(0,0)" fill="#0583F3" d=""/>
<path transform="translate(0,0)" fill="#0283F4" d=""/>
<path transform="translate(0,0)" fill="#038AFF" d=""/>
<path transform="translate(0,0)" fill="#048BFE" d=""/>
<path transform="translate(0,0)" fill="#0482F0" d=""/>
<path transform="translate(0,0)" fill="#0585F4" d=""/>
<path transform="translate(0,0)" fill="#55B1FC" d=""/>
<path transform="translate(0,0)" fill="#88C6FE" d=""/>
<path transform="translate(0,0)" fill="#72BEFF" d=""/>
<path transform="translate(0,0)" fill="#0685F2" d=""/>
<path transform="translate(0,0)" fill="#83C5FF" d=""/>
<path transform="translate(0,0)" fill="#86C3FB" d=""/>
<path transform="translate(0,0)" fill="#7CC1FF" d=""/>
<path transform="translate(0,0)" fill="#54B1FF" d=""/>
<path transform="translate(0,0)" fill="#54AEFB" d=""/>
<path transform="translate(0,0)" fill="#0981F3" d=""/>
<path transform="translate(0,0)" fill="#0385F6" d=""/>
<path transform="translate(0,0)" fill="#0185F6" d=""/>
<path transform="translate(0,0)" fill="#0987F3" d=""/>
<path transform="translate(0,0)" fill="#0489FA" d=""/>
<path transform="translate(0,0)" fill="#0588FA" d=""/>
<path transform="translate(0,0)" fill="#0686F9" d=""/>
<path transform="translate(0,0)" fill="#038AFC" d=""/>
<path transform="translate(0,0)" fill="#0787F4" d=""/>
<path transform="translate(0,0)" fill="#0286F7" d=""/>
<path transform="translate(0,0)" fill="#0188F8" d=""/>
<path transform="translate(0,0)" fill="#0385F7" d=""/>
<path transform="translate(0,0)" fill="#008BFE" d=""/>
<path transform="translate(0,0)" fill="#48ABFF" d=""/>
<path transform="translate(0,0)" fill="#5FB6FF" d=""/>
<path transform="translate(0,0)" fill="#0C87F0" d=""/>
<path transform="translate(0,0)" fill="#0484F5" d=""/>
<path transform="translate(0,0)" fill="#7CC4FF" d=""/>
<path transform="translate(0,0)" fill="#0685F4" d=""/>
<path transform="translate(0,0)" fill="#0482F3" d=""/>
<path transform="translate(0,0)" fill="#6DBDFE" d=""/>
<path transform="translate(0,0)" fill="#067BE3" d=""/>
<path transform="translate(0,0)" fill="#038BFF" d=""/>
<path transform="translate(0,0)" fill="#018DFF" d=""/>
<path transform="translate(0,0)" fill="#0D86F1" d=""/>
<path transform="translate(0,0)" fill="#0289FB" d=""/>
<path transform="translate(0,0)" fill="#0786F2" d=""/>
<path transform="translate(0,0)" fill="#0589F9" d=""/>
<path transform="translate(0,0)" fill="#0588F6" d=""/>
<path transform="translate(0,0)" fill="#0289F8" d=""/>
<path transform="translate(0,0)" fill="#018CFF" d=""/>
<path transform="translate(0,0)" fill="#0189F9" d=""/>
<path transform="translate(0,0)" fill="#0382F3" d=""/>
<path transform="translate(0,0)" fill="#0683F4" d=""/>
<path transform="translate(0,0)" fill="#0189F9" d=""/>
<path transform="translate(0,0)" fill="#0288F9" d=""/>
<path transform="translate(0,0)" fill="#0490FF" d=""/>
<path transform="translate(0,0)" fill="#0685F0" d=""/>
<path transform="translate(0,0)" fill="#72BDFE" d=""/>
<path transform="translate(0,0)" fill="#038BF9" d=""/>
<path transform="translate(0,0)" fill="#7FC0FC" d=""/>
<path transform="translate(0,0)" fill="#80C1FC" d=""/>
<path transform="translate(0,0)" fill="#0884F3" d=""/>
<path transform="translate(0,0)" fill="#4BADFF" d=""/>
<path transform="translate(0,0)" fill="#0788F6" d=""/>
<path transform="translate(0,0)" fill="#0884F2" d=""/>
<path transform="translate(0,0)" fill="#067FE7" d=""/>
<path transform="translate(0,0)" fill="#0F73CB" d=""/>
<path transform="translate(0,0)" fill="#0986F6" d=""/>
<path transform="translate(0,0)" fill="#0785F2" d=""/>
<path transform="translate(0,0)" fill="#0485F1" d=""/>
<path transform="translate(0,0)" fill="#0484F2" d=""/>
<path transform="translate(0,0)" fill="#0585F4" d=""/>
<path transform="translate(0,0)" fill="#B0AEB3" d=""/>
</svg>